<svg width="26" height="20" viewBox="0 0 26 20" fill="none" xmlns="http://www.w3.org/2000/svg">
<path d="M0.166687 20V16.5C0.166687 15.7917 0.336826 15.1406 0.677104 14.5469C1.01738 13.9531 1.46946 13.5 2.03335 13.1875C3.23891 12.5417 4.46391 12.0573 5.70835 11.7344C6.9528 11.4115 8.21669 11.25 9.50002 11.25C10.7834 11.25 12.0472 11.4115 13.2917 11.7344C14.5361 12.0573 15.7611 12.5417 16.9667 13.1875C17.5306 13.5 17.9827 13.9531 18.3229 14.5469C18.6632 15.1406 18.8334 15.7917 18.8334 16.5V20H0.166687ZM21.1667 20V16.25C21.1667 15.3333 20.9285 14.4531 20.4521 13.6094C19.9757 12.7656 19.3 12.0417 18.425 11.4375C19.4167 11.5625 20.35 11.776 21.225 12.0781C22.1 12.3802 22.9167 12.75 23.675 13.1875C24.375 13.6042 24.9097 14.0677 25.2792 14.5781C25.6486 15.0885 25.8334 15.6458 25.8334 16.25V20H21.1667ZM9.50002 10C8.21669 10 7.11808 9.51042 6.20419 8.53125C5.2903 7.55208 4.83335 6.375 4.83335 5C4.83335 3.625 5.2903 2.44792 6.20419 1.46875C7.11808 0.489583 8.21669 0 9.50002 0C10.7834 0 11.882 0.489583 12.7959 1.46875C13.7097 2.44792 14.1667 3.625 14.1667 5C14.1667 6.375 13.7097 7.55208 12.7959 8.53125C11.882 9.51042 10.7834 10 9.50002 10ZM21.1667 5C21.1667 6.375 20.7097 7.55208 19.7959 8.53125C18.882 9.51042 17.7834 10 16.5 10C16.2861 10 16.0139 9.97396 15.6834 9.92188C15.3528 9.86979 15.0806 9.8125 14.8667 9.75C15.3917 9.08333 15.7952 8.34375 16.0771 7.53125C16.359 6.71875 16.5 5.875 16.5 5C16.5 4.125 16.359 3.28125 16.0771 2.46875C15.7952 1.65625 15.3917 0.916667 14.8667 0.25C15.1389 0.145833 15.4111 0.078125 15.6834 0.046875C15.9556 0.015625 16.2278 0 16.5 0C17.7834 0 18.882 0.489583 19.7959 1.46875C20.7097 2.44792 21.1667 3.625 21.1667 5ZM2.50002 17.5H16.5V16.5C16.5 16.2708 16.4465 16.0625 16.3396 15.875C16.2327 15.6875 16.0917 15.5417 15.9167 15.4375C14.8667 14.875 13.807 14.4531 12.7375 14.1719C11.6681 13.8906 10.5889 13.75 9.50002 13.75C8.41113 13.75 7.33196 13.8906 6.26252 14.1719C5.19308 14.4531 4.13335 14.875 3.08335 15.4375C2.90835 15.5417 2.76738 15.6875 2.66044 15.875C2.55349 16.0625 2.50002 16.2708 2.50002 16.5V17.5ZM9.50002 7.5C10.1417 7.5 10.691 7.25521 11.1479 6.76562C11.6049 6.27604 11.8334 5.6875 11.8334 5C11.8334 4.3125 11.6049 3.72396 11.1479 3.23438C10.691 2.74479 10.1417 2.5 9.50002 2.5C8.85835 2.5 8.30905 2.74479 7.8521 3.23438C7.39516 3.72396 7.16669 4.3125 7.16669 5C7.16669 5.6875 7.39516 6.27604 7.8521 6.76562C8.30905 7.25521 8.85835 7.5 9.50002 7.5Z" fill="black" fill-opacity="0.42"/>
</svg>
